P2
64 64
255
136 240 186 10 0 156 190 36 124 8 27 105 217 174 52 64 49 80 147 155 255 139 44 41 132 175 230 204 106 206 87 77 168 19 207 79 165 85 153 129 160 236 125 24 79 196 137 125 198 176 18 66 155 0 245 91 73 85 34 139 208 180 92 28 
166 218 58 211 202 207 114 35 53 190 86 161 119 4 159 184 159 135 106 158 91 73 128 134 96 61 218 24 12 89 101 30 74 236 2 128 183 50 209 114 3 37 175 236 153 151 253 90 130 126 164 150 134 143 85 19 149 14 22 91 102 228 250 187 
94 242 47 60 179 165 62 214 209 202 143 225 253 164 44 204 56 60 198 17 102 249 253 104 175 112 220 60 38 125 163 91 168 147 202 241 7 80 66 183 104 85 254 104 234 84 178 117 137 106 219 249 65 176 255 239 118 13 54 163 147 78 233 102 
242 120 218 134 252 92 100 125 145 109 5 105 170 207 25 188 60 176 232 53 96 219 227 15 178 138 43 120 246 124 83 68 3 72 103 227 216 241 45 144 18 186 170 204 131 60 232 11 27 181 247 173 11 163 50 47 42 146 195 163 151 50 106 93 
160 172 122 240 227 54 36 89 179 230 247 121 190 195 168 201 236 34 15 73 138 48 115 185 167 203 7 12 190 150 180 26 150 76 25 149 103 84 209 62 62 150 244 88 162 142 224 93 120 158 57 241 36 169 46 20 241 221 254 155 179 208 187 225 
171 207 79 186 170 115 188 168 121 116 168 82 121 194 24 49 134 210 124 141 34 54 236 168 208 113 177 57 189 9 7 27 166 222 33 71 245 185 110 0 46 40 27 77 137 138 217 172 225 102 224 5 204 1 51 221 12 47 38 204 38 105 30 49 
80 32 153 36 144 81 110 172 34 90 85 50 28 12 169 54 77 1 109 65 106 47 142 27 108 190 103 61 52 23 138 137 113 62 190 57 195 97 68 22 33 177 95 234 120 112 19 55 148 75 44 41 68 235 130 202 185 199 124 117 48 60 211 141 
208 223 152 110 214 18 121 164 239 213 64 92 229 223 156 23 126 238 36 166 162 91 153 82 187 241 107 91 98 255 127 164 55 172 48 172 16 139 148 192 87 111 0 111 173 129 206 63 211 143 93 158 203 167 90 27 59 229 62 214 17 137 24 53 
108 76 141 217 187 245 29 209 31 39 168 13 23 125 48 21 91 217 224 251 8 248 77 141 254 74 253 208 134 1 38 170 57 104 183 223 29 119 156 63 16 164 62 29 106 251 74 2 222 113 180 163 161 118 251 17 206 201 174 48 10 144 47 106 
100 168 183 164 126 58 154 113 242 143 205 134 239 37 165 111 35 2 225 128 222 72 235 13 116 10 91 222 227 94 189 221 181 179 148 18 40 101 159 209 140 143 90 50 238 33 200 194 243 50 112 120 6 151 165 235 182 180 11 193 89 146 87 107 
246 50 86 16 98 33 49 198 168 77 239 8 174 23 59 101 22 169 104 117 99 138 178 17 93 111 199 195 182 85 134 124 237 204 6 133 115 150 218 184 13 112 147 240 121 48 135 190 84 16 209 94 59 74 153 233 49 229 150 203 64 206 208 120 
99 42 171 91 164 235 33 15 130 161 79 210 149 147 51 55 117 15 180 27 215 254 226 217 249 187 128 194 65 38 192 199 33 244 77 121 61 73 142 52 208 136 42 150 75 106 199 54 64 77 24 147 127 207 22 75 127 156 141 142 255 132 219 209 
236 209 244 199 134 215 170 141 191 204 44 37 227 218 204 37 127 115 5 176 123 229 188 166 137 46 198 24 195 17 171 255 143 105 169 45 198 190 252 131 22 22 93 101 165 13 201 107 247 40 131 89 18 103 92 82 224 25 50 72 212 244 183 183 
208 101 115 147 71 37 13 127 158 13 198 63 217 43 70 112 115 21 155 118 141 125 127 183 76 6 217 7 124 86 135 98 121 109 91 225 79 53 99 231 32 90 110 155 198 91 203 156 186 226 84 240 52 81 172 61 148 157 196 59 1 95 164 105 
80 40 104 255 39 21 136 36 98 164 93 98 181 198 225 87 147 54 183 173 79 8 107 76 130 133 250 205 172 54 149 50 30 63 162 213 23 239 4 159 45 148 156 122 238 148 15 9 200 185 202 150 38 205 68 76 221 103 131 166 197 4 226 39 
170 89 17 76 102 232 93 191 72 210 50 205 185 236 222 26 31 20 151 147 1 198 192 165 107 234 104 172 148 240 20 175 190 31 190 74 94 42 29 235 125 5 39 66 94 246 213 242 96 239 38 141 39 27 102 191 247 183 176 201 96 35 178 49 
32 57 176 184 69 221 203 141 146 213 132 192 36 220 124 249 86 241 125 106 225 245 190 2 72 117 99 228 115 197 68 23 153 78 239 127 100 40 240 12 81 236 80 49 85 195 91 152 197 195 166 20 119 124 81 215 37 205 138 229 19 253 82 200 
241 6 132 133 3 52 19 208 127 239 147 124 55 213 251 53 119 13 169 113 49 215 166 164 87 103 44 179 137 243 101 172 240 11 118 180 106 41 188 65 231 137 85 137 19 58 227 58 53 118 140 107 86 47 70 210 167 234 81 56 29 208 4 43 
94 2 205 243 224 46 116 199 79 96 159 64 48 26 155 13 197 166 89 233 48 171 183 202 219 255 1 91 22 188 184 173 2 150 146 41 174 107 193 202 129 28 120 137 216 156 172 24 239 70 24 210 5 116 131 243 187 77 69 4 190 222 8 154 
165 109 204 64 29 9 46 178 67 102 233 76 81 232 157 193 124 254 207 16 30 177 49 180 17 125 36 27 91 95 124 90 15 47 131 31 115 48 64 231 94 230 249 113 228 39 246 114 53 117 136 138 195 139 74 119 163 54 167 137 54 102 156 85 
8 133 191 174 248 7 129 209 154 67 176 224 217 129 64 146 225 84 74 40 60 42 85 163 58 33 213 52 151 28 241 244 88 23 137 213 246 183 120 216 190 37 22 129 120 29 1 137 71 66 30 210 208 181 218 160 158 229 182 5 197 169 2 157 
198 140 232 124 179 103 173 101 148 54 52 60 8 36 196 190 48 232 10 112 200 84 98 213 151 43 82 228 10 52 87 185 28 140 229 139 120 64 169 222 226 27 17 250 211 189 14 155 99 237 25 234 108 49 116 172 237 155 178 186 172 229 121 177 
32 193 135 234 141 106 243 173 113 127 181 161 31 17 105 135 170 251 80 40 4 113 152 140 103 220 221 109 244 229 239 235 155 208 214 130 58 12 19 56 9 8 41 27 53 72 92 234 202 183 185 19 216 63 86 221 207 151 219 231 42 92 65 209 
84 100 218 57 199 79 146 233 113 94 116 78 93 137 112 45 143 203 91 145 48 193 55 8 235 115 181 14 150 114 248 202 21 35 156 248 123 90 247 39 115 42 158 36 223 252 43 182 190 223 62 139 83 31 194 115 132 25 114 204 128 77 155 61 
164 181 35 168 160 86 202 89 213 20 176 132 2 202 24 238 32 154 107 234 138 130 128 135 97 48 26 8 47 24 178 148 203 195 119 47 124 106 148 233 96 195 177 85 15 27 188 61 124 165 233 148 29 18 247 172 76 97 182 170 236 249 198 54 
79 245 161 119 87 191 219 62 220 224 169 129 78 22 161 12 156 167 192 115 84 246 177 75 10 84 76 153 255 24 94 139 251 242 168 102 123 124 42 192 17 18 161 239 7 228 78 193 70 73 249 110 118 87 54 202 103 176 231 191 176 158 2 251 
150 99 148 230 47 202 6 215 199 2 159 135 130 172 75 198 67 51 155 108 205 92 12 147 40 30 140 3 71 179 58 238 231 239 110 222 186 209 249 235 197 88 174 49 6 151 33 129 91 12 174 87 159 46 189 12 22 69 69 77 11 126 143 204 
183 63 61 53 101 184 138 100 212 187 211 213 221 205 87 92 85 125 59 22 53 244 209 159 248 206 25 133 69 40 136 253 206 250 9 213 120 168 66 170 188 211 24 91 77 117 117 189 251 45 72 145 215 215 206 179 152 96 17 148 61 216 174 233 
244 201 218 165 59 200 167 37 69 73 132 171 159 184 3 14 19 197 224 176 205 255 62 175 188 164 51 96 59 183 135 249 241 84 185 141 245 65 67 62 54 197 31 174 27 189 138 182 102 236 8 91 94 147 168 253 45 65 137 210 135 237 157 147 
140 66 173 117 240 58 158 91 89 238 242 74 8 173 146 29 188 75 202 122 211 187 149 4 179 224 27 210 104 161 120 33 142 60 191 69 114 220 62 230 116 109 4 104 176 175 161 171 220 137 45 245 116 161 140 44 21 41 239 73 40 252 158 9 
192 233 246 229 196 78 173 69 80 233 94 241 89 236 65 200 144 79 57 180 137 106 21 221 29 195 15 29 13 37 153 181 231 242 90 62 46 185 115 226 181 11 6 203 76 139 249 220 158 69 247 159 90 65 184 127 145 87 131 56 96 68 241 139 
206 254 243 54 247 69 22 35 107 123 6 224 209 181 81 79 208 18 110 159 47 76 254 122 58 140 81 128 104 131 44 245 60 182 202 182 105 25 32 114 57 224 102 22 47 146 210 137 236 95 167 154 79 179 110 55 224 11 131 223 111 8 212 89 
248 193 230 167 202 94 25 54 232 227 44 87 176 73 3 243 186 211 168 121 3 159 145 28 75 124 33 60 187 251 112 33 203 201 79 239 99 59 135 214 64 43 98 138 154 3 109 243 4 23 123 37 147 56 237 146 66 133 49 126 149 133 137 180 
125 115 14 120 124 217 244 188 9 97 15 151 54 231 150 242 144 210 40 133 71 165 12 2 143 209 189 143 69 206 166 122 214 105 42 40 93 96 231 79 11 44 60 101 204 30 8 89 39 173 181 128 102 15 118 210 248 6 204 86 19 253 79 219 
158 83 171 233 77 247 233 247 15 53 240 222 164 207 75 142 145 80 44 0 58 157 177 108 70 205 103 187 71 58 13 63 156 216 154 162 150 198 129 28 217 35 51 233 5 35 229 251 150 98 148 236 9 120 71 54 65 205 149 166 40 175 102 14 
152 161 254 59 126 246 55 38 53 159 13 110 57 66 96 6 254 140 246 43 28 199 192 154 176 175 94 255 255 129 228 176 93 86 223 155 78 175 147 126 234 81 135 86 134 83 68 25 144 117 89 167 187 179 162 254 93 26 202 174 20 219 15 142 
176 158 69 172 77 24 30 138 192 224 168 135 53 126 23 155 21 197 197 71 46 100 119 204 14 183 226 156 175 227 110 14 90 33 57 85 197 90 95 179 127 245 121 234 141 237 99 244 86 38 67 243 188 1 198 107 140 46 173 175 24 193 137 153 
34 136 194 126 252 156 222 97 238 55 0 103 216 197 175 139 24 62 217 147 174 178 24 67 158 38 51 208 150 158 232 152 209 123 233 15 59 7 36 253 214 79 71 231 92 49 132 202 38 181 146 16 76 161 244 188 14 71 125 232 115 162 20 113 
47 161 181 241 202 195 184 237 255 228 86 80 99 87 105 24 71 52 115 80 222 243 226 62 163 58 146 221 245 244 148 142 5 163 46 10 241 247 34 155 49 159 51 140 51 95 230 221 66 99 134 60 172 211 106 49 36 167 123 153 101 189 240 85 
24 40 92 67 248 204 235 109 52 40 232 129 20 114 131 130 224 233 210 188 254 103 21 253 90 53 62 2 11 36 177 48 51 217 72 133 38 105 154 205 207 38 125 25 80 184 201 109 233 111 95 185 27 215 106 10 13 141 229 2 46 82 94 134 
28 94 249 182 197 246 183 34 204 65 248 58 46 88 63 7 36 156 54 25 76 76 242 193 4 87 119 128 23 110 127 190 156 94 119 191 27 157 203 212 241 34 99 206 245 122 110 184 91 25 94 198 217 238 51 136 9 58 253 99 15 161 156 66 
123 130 203 137 113 132 93 75 6 113 197 188 238 72 220 233 85 141 223 166 10 228 183 200 226 222 126 149 92 19 62 121 129 113 252 251 14 211 245 238 213 213 39 236 97 231 19 0 217 161 194 163 38 87 6 234 88 236 2 253 70 235 236 203 
116 211 18 252 60 179 27 39 37 247 144 70 149 130 155 103 176 253 14 164 119 110 166 84 51 12 146 131 23 82 47 160 33 82 22 118 65 76 88 94 189 127 8 178 212 63 250 132 162 72 203 144 67 82 33 112 58 229 52 15 21 111 142 96 
75 148 15 80 102 197 51 249 102 20 152 24 100 70 186 193 118 42 1 81 211 42 255 165 56 32 242 137 138 107 145 115 188 65 5 114 243 70 53 97 232 94 70 96 142 192 98 133 247 77 185 206 111 31 198 90 241 100 212 217 188 109 192 66 
60 2 0 196 48 249 228 254 11 7 28 114 154 213 123 55 232 86 251 239 95 89 0 249 47 90 225 232 244 158 164 51 147 127 9 45 100 4 203 56 151 180 34 54 208 172 140 65 21 240 205 156 234 255 52 233 186 170 33 156 121 37 196 175 
136 95 39 152 217 143 111 120 83 15 95 149 120 110 29 10 69 193 57 189 89 57 235 146 90 251 156 222 149 43 168 31 228 74 99 234 213 195 90 36 8 192 219 117 217 66 183 250 63 113 70 58 244 49 172 92 215 245 91 151 142 216 217 233 
111 234 196 12 161 199 19 166 126 111 158 192 60 81 225 121 205 169 252 251 3 12 255 175 248 65 101 173 173 83 222 119 241 228 82 230 133 196 34 100 125 195 177 92 233 195 35 239 181 17 100 233 206 245 108 243 134 135 194 10 58 197 63 47 
50 227 21 96 200 226 16 200 205 100 27 51 40 191 5 196 192 80 133 234 157 18 124 144 74 110 123 148 125 85 133 123 249 141 22 99 180 72 99 56 53 251 228 43 65 109 16 96 182 15 104 231 183 139 182 238 9 159 151 53 189 44 55 194 
16 138 92 213 143 31 166 30 126 48 21 46 123 246 203 44 95 245 19 201 101 137 163 117 142 194 30 212 68 113 221 107 61 131 239 160 162 142 94 225 113 170 180 35 32 130 190 142 131 171 144 118 239 52 201 142 160 126 25 88 88 77 0 224 
72 32 216 170 53 190 21 233 212 18 204 241 118 56 114 239 233 216 231 216 157 179 178 159 6 123 143 171 66 232 39 136 252 8 30 221 144 215 82 158 111 15 98 130 198 65 110 184 90 37 30 214 182 47 230 18 136 98 136 180 74 105 218 203 
29 228 201 31 250 0 158 104 12 74 128 189 87 197 58 79 158 57 63 87 132 207 235 77 241 219 12 91 183 249 161 17 118 91 226 90 189 97 128 175 113 106 45 138 115 235 95 30 125 190 81 69 77 188 75 186 6 141 36 136 211 191 5 194 
205 22 111 117 31 35 128 219 103 24 114 209 96 219 100 139 191 89 93 135 90 29 142 191 143 33 215 35 228 228 141 70 235 188 123 88 105 110 38 84 183 252 86 122 103 190 209 0 43 180 106 5 243 27 58 198 86 62 46 20 51 143 194 6 
152 246 11 235 226 105 251 130 38 189 225 110 208 188 47 228 138 119 128 167 96 222 217 54 33 141 47 67 8 233 42 104 154 108 41 22 212 61 134 206 127 4 27 147 227 252 5 159 164 74 167 85 232 141 242 119 185 182 228 153 171 26 79 213 
190 197 220 193 133 17 79 158 136 120 13 210 232 167 219 153 65 211 232 247 212 80 14 241 230 96 85 252 99 73 185 182 199 170 45 212 62 14 223 91 10 194 190 20 38 228 58 57 41 189 74 117 108 81 180 12 111 51 137 85 121 158 238 113 
127 194 34 55 71 92 189 110 206 137 54 63 230 220 168 233 34 174 214 183 248 181 108 48 30 217 136 141 53 66 120 112 174 182 198 210 232 34 113 61 153 118 126 60 112 182 175 17 249 78 147 165 192 167 191 197 185 247 90 138 223 93 223 25 
28 45 30 141 105 137 132 50 54 49 157 244 12 155 215 23 113 71 137 40 12 77 51 51 9 56 8 54 191 22 169 214 144 208 52 81 17 184 125 180 107 97 155 78 2 179 167 100 84 62 192 38 35 207 82 226 214 65 152 120 29 150 96 14 
212 71 15 4 42 215 228 42 2 174 129 49 153 37 167 96 105 222 65 136 78 86 164 58 232 189 21 55 64 5 139 40 174 57 183 144 250 16 66 254 193 194 86 135 26 26 95 115 122 204 19 55 213 10 176 164 6 82 132 93 113 138 179 142 
231 78 53 219 202 137 30 151 113 66 34 55 205 185 88 6 77 179 62 26 0 18 254 134 250 168 239 209 248 77 95 167 71 47 144 207 225 106 0 93 218 217 237 41 250 43 25 127 173 57 203 24 22 150 22 73 138 104 93 123 29 119 23 219 
149 132 208 83 137 220 112 184 195 45 192 69 233 151 42 72 93 6 193 27 97 192 129 86 127 58 215 67 40 48 100 146 155 244 254 78 8 7 247 16 245 230 162 115 226 38 20 199 40 195 40 10 39 182 198 20 160 197 100 17 96 159 204 52 
31 40 32 170 167 18 28 205 57 173 156 155 44 0 94 102 215 24 8 204 177 160 109 234 183 178 12 205 14 237 217 41 234 200 65 78 174 37 104 87 85 42 181 165 16 76 144 140 48 172 106 75 71 167 254 66 138 168 215 95 122 65 19 218 
196 123 102 34 101 106 98 23 17 4 245 121 214 51 51 160 253 40 85 110 49 243 2 131 226 80 206 175 236 196 1 173 116 233 153 14 19 6 146 115 55 227 100 255 198 220 206 12 4 51 210 29 182 171 1 20 136 82 248 166 172 158 43 11 
196 187 225 250 2 36 128 212 141 113 11 32 39 111 233 55 14 118 232 64 31 247 129 95 65 85 94 42 1 246 25 93 122 153 71 206 120 234 181 163 221 83 241 194 67 22 12 137 226 153 159 192 180 0 12 203 216 1 6 36 53 244 84 9 
95 42 209 114 190 128 184 70 237 52 30 206 96 247 192 106 74 67 255 131 189 238 41 192 19 0 250 125 142 194 99 121 59 23 137 206 28 15 17 39 133 186 155 45 199 58 140 66 12 28 17 114 130 233 97 166 188 247 66 27 85 133 206 19 
214 7 119 203 217 191 73 172 111 141 111 197 192 8 249 121 241 205 220 117 75 24 58 230 153 145 228 232 209 104 30 65 247 163 162 79 63 183 231 63 114 86 162 128 146 137 142 119 193 254 104 117 95 163 62 230 115 116 234 203 76 144 218 106 
