P2
64 64
255
144 159 185 201 241 31 146 112 165 74 126 171 53 23 226 93 203 151 223 46 57 227 121 39 60 83 249 124 2 240 143 168 235 44 60 191 141 209 239 0 250 56 239 170 69 187 120 18 66 108 169 241 142 8 158 2 207 38 217 205 61 180 230 189 
98 164 62 121 29 227 109 113 237 139 112 183 108 89 97 17 26 97 86 76 92 0 134 211 197 19 173 128 147 102 178 177 125 112 135 159 172 61 82 235 7 171 202 122 179 217 227 131 218 221 173 230 172 181 121 192 164 128 63 60 13 239 60 172 
196 246 223 216 63 199 230 149 206 0 197 154 33 35 71 144 11 72 119 104 133 14 193 241 246 215 85 170 178 53 204 213 192 159 14 204 224 105 115 152 204 243 40 192 191 32 213 95 52 9 124 121 240 243 165 143 66 127 184 113 138 33 170 84 
248 211 219 36 150 11 63 28 137 234 189 147 148 182 212 25 221 138 132 194 244 76 108 194 17 224 48 58 157 155 29 82 245 251 16 136 106 149 147 72 140 78 74 188 168 206 142 229 143 50 87 235 153 1 95 177 234 98 132 173 244 140 110 247 
61 125 115 159 98 239 183 68 93 136 152 226 3 81 73 236 208 105 188 155 231 251 198 133 85 109 126 113 150 218 230 106 90 195 205 18 137 1 243 57 132 254 111 174 174 37 78 85 43 151 125 122 231 32 233 101 218 105 228 47 139 111 203 212 
211 51 229 136 228 180 143 79 137 26 150 200 176 52 229 73 36 36 96 49 160 89 15 122 2 190 127 142 220 49 101 92 49 55 133 170 125 238 210 173 245 67 215 215 17 100 85 240 72 121 46 104 26 143 129 236 84 212 23 55 144 10 254 43 
251 54 115 32 91 152 6 124 80 224 248 131 217 159 232 113 27 252 174 198 94 168 136 226 89 20 116 209 175 225 220 104 185 152 120 145 134 155 113 227 32 91 194 118 17 204 228 245 38 22 170 244 115 142 106 132 151 228 93 5 66 157 72 60 
244 196 92 166 7 221 91 11 239 27 253 85 193 211 146 163 242 47 232 154 97 39 111 251 152 173 155 123 79 40 138 207 50 36 231 6 229 72 14 27 68 136 113 203 239 156 58 164 6 176 50 95 49 93 225 111 229 216 247 218 225 105 234 72 
254 31 225 89 40 195 209 60 168 10 229 126 165 14 36 31 234 255 78 235 234 22 6 7 1 203 54 203 253 72 176 207 221 29 17 73 217 53 235 150 162 9 35 22 234 19 151 61 38 134 4 231 148 60 40 236 121 240 35 245 173 173 35 142 
89 134 64 124 254 136 165 80 186 237 241 60 199 146 221 38 68 172 30 251 56 182 141 70 212 174 133 1 248 128 140 170 249 195 54 154 162 163 71 147 120 30 24 152 66 116 60 1 201 216 98 206 221 108 125 60 152 108 35 150 231 169 51 78 
69 58 187 76 202 110 25 134 101 5 96 209 102 159 253 246 63 116 154 9 139 70 66 246 79 148 198 93 128 17 96 160 199 84 151 58 128 209 98 82 8 8 144 143 56 252 103 47 45 231 140 83 74 44 35 157 128 141 54 253 205 158 91 200 
3 121 145 11 203 180 108 30 233 144 114 124 194 115 196 209 27 153 1 85 35 6 103 89 181 191 59 31 214 57 107 239 133 18 115 103 180 255 125 19 145 6 204 62 11 237 90 7 145 242 192 183 29 188 87 81 114 146 157 107 162 203 218 61 
210 133 3 248 65 154 222 89 135 208 103 125 27 80 115 247 25 90 147 32 65 54 59 174 66 110 35 136 57 58 238 217 116 60 10 99 124 109 215 23 83 88 11 226 251 134 85 201 55 57 64 56 150 93 91 151 172 187 151 31 163 112 240 236 
243 157 79 83 109 97 175 117 126 4 127 20 178 117 72 166 119 247 144 168 36 23 254 53 57 225 191 215 232 83 39 157 213 18 156 110 27 92 176 156 143 62 141 188 72 7 150 182 95 252 75 24 243 77 109 176 112 72 99 89 17 205 221 21 
164 2 183 92 142 71 32 180 14 109 251 130 198 34 133 32 119 176 57 47 12 232 241 47 218 88 77 77 38 197 88 123 231 213 105 198 206 11 72 228 132 248 146 13 51 176 95 13 71 124 33 150 118 206 208 218 253 122 68 89 45 34 226 248 
39 242 122 84 228 142 112 85 120 73 26 6 151 152 106 164 88 198 205 245 57 233 82 218 99 20 15 40 48 206 193 180 235 195 178 173 215 186 224 47 114 199 91 20 250 194 239 14 48 247 3 243 94 31 193 87 148 144 119 96 54 176 61 214 
187 175 217 122 175 118 223 153 250 218 29 224 101 22 53 114 90 120 140 56 235 90 99 120 23 84 68 170 72 176 160 135 31 30 182 98 116 169 182 187 153 234 39 18 223 124 134 249 92 176 48 109 235 129 130 102 115 202 62 173 109 182 48 238 
160 120 18 14 47 61 174 190 214 95 66 81 113 220 40 202 190 6 182 58 99 124 100 73 51 88 44 18 173 170 55 52 196 38 181 37 232 25 13 202 58 162 54 69 34 30 100 15 8 228 232 70 93 51 81 72 220 104 216 128 16 116 251 128 
23 142 103 80 165 37 27 6 76 25 203 151 250 42 130 237 195 177 140 58 224 142 147 139 249 97 8 160 159 253 197 251 29 25 240 55 112 73 34 155 148 45 200 239 1 232 202 142 118 212 107 189 245 117 113 59 14 171 133 26 97 43 220 204 
95 47 23 129 80 109 104 177 154 70 247 244 64 65 132 26 168 183 77 120 163 208 50 128 167 174 23 149 95 231 138 29 101 57 165 215 78 121 54 110 231 205 30 79 190 27 247 184 228 193 250 18 242 135 31 129 74 209 133 185 159 26 21 19 
184 157 99 224 112 85 212 253 2 40 6 168 131 96 108 145 176 90 57 52 234 130 128 103 127 127 153 47 43 170 198 216 223 197 22 69 192 234 138 132 115 193 119 165 152 246 43 205 148 234 211 134 148 169 157 89 207 29 25 159 11 129 229 148 
98 23 137 173 70 30 160 44 195 255 57 241 4 199 124 147 25 217 145 175 247 229 189 128 192 20 206 176 69 133 186 110 202 253 131 193 9 218 93 28 121 73 19 50 207 185 167 11 197 144 57 88 27 28 41 4 221 204 128 11 227 160 140 143 
157 222 203 41 17 7 11 125 29 9 206 17 2 182 243 95 35 117 147 40 9 55 42 12 171 173 247 88 236 185 165 31 102 34 42 140 102 139 240 118 55 166 50 53 164 165 170 180 184 241 105 200 200 31 6 192 180 32 250 62 105 183 75 69 
170 48 104 146 17 80 84 48 80 136 7 71 189 109 18 53 14 109 129 223 96 186 5 73 127 139 83 101 97 132 199 41 243 114 77 228 25 60 129 210 239 23 21 238 86 248 115 7 172 79 164 22 218 242 113 207 148 87 200 118 220 7 97 244 
200 79 160 42 134 57 190 133 157 187 36 211 117 45 23 85 26 0 154 21 61 174 144 121 124 237 34 25 227 40 96 206 179 47 43 11 96 46 82 113 225 220 251 157 37 244 69 69 225 233 43 131 145 214 172 112 190 179 40 245 124 207 14 222 
56 122 180 48 176 2 134 189 67 226 99 245 107 53 68 255 136 113 31 9 223 81 11 220 226 19 164 179 178 228 177 77 226 153 4 65 126 159 162 146 75 53 36 131 81 216 93 172 151 255 61 78 46 9 245 228 112 116 92 250 138 79 146 66 
56 242 227 229 208 236 238 23 130 61 6 238 222 198 216 116 151 253 78 251 134 229 180 176 241 62 26 115 14 248 249 230 195 238 25 196 176 209 177 117 111 98 209 223 26 229 253 126 14 210 26 183 239 205 143 105 237 216 164 198 69 200 45 97 
10 245 109 135 37 54 53 211 154 13 76 253 14 30 19 243 135 230 105 43 114 169 205 55 234 172 194 154 55 165 120 218 149 112 168 214 55 3 192 90 140 164 64 241 193 90 100 250 135 161 3 254 22 97 183 65 114 33 62 151 237 120 32 121 
236 197 146 88 239 32 155 49 204 145 117 98 59 127 54 188 152 107 176 217 228 222 149 176 12 159 223 102 110 42 110 104 153 94 243 182 84 118 14 130 227 58 179 249 133 118 210 97 65 172 55 100 226 6 175 171 65 142 108 175 194 161 170 204 
33 161 147 152 111 235 96 114 87 9 194 94 166 40 128 16 11 204 97 70 26 194 76 91 151 87 174 25 242 199 28 208 14 248 58 164 70 104 219 43 178 100 105 56 166 124 136 241 124 51 246 40 148 251 181 232 152 96 109 77 5 131 12 153 
231 202 175 133 228 214 197 213 123 181 113 47 142 89 49 45 30 73 190 177 87 151 51 121 204 18 112 243 3 188 193 82 52 127 187 225 78 27 103 151 59 99 163 236 101 169 196 236 121 119 128 138 107 128 12 54 186 213 129 178 245 92 132 33 
126 127 38 97 142 33 9 154 121 214 197 23 51 83 137 85 19 35 6 90 216 156 136 72 234 18 102 50 226 74 157 46 74 49 184 172 170 206 243 6 189 118 159 88 1 63 200 145 118 183 22 202 166 213 241 215 228 47 232 28 210 110 84 162 
38 255 56 107 173 12 108 2 144 171 251 85 214 85 201 199 42 153 121 130 222 17 141 10 49 150 207 24 205 176 240 165 148 80 112 69 156 194 189 182 120 221 159 185 186 125 211 32 181 51 247 41 136 58 166 10 88 173 227 205 220 248 187 94 
31 141 38 227 129 216 47 75 255 116 84 42 181 159 48 196 160 235 87 103 170 55 130 255 225 222 236 228 6 46 251 246 78 28 35 236 99 53 8 233 173 216 226 80 208 163 38 218 118 43 99 230 78 240 105 16 85 144 177 4 84 58 249 149 
169 102 47 9 75 195 144 183 9 113 17 213 18 113 254 139 186 90 225 75 123 77 165 101 58 42 251 214 204 4 253 97 185 211 17 226 64 105 17 222 155 168 169 94 132 241 0 254 247 223 154 65 58 54 125 39 27 22 146 2 121 117 79 133 
4 204 147 30 74 15 209 134 235 227 113 150 44 12 115 92 180 36 86 110 146 147 56 126 125 187 62 47 96 115 54 39 22 183 123 101 113 157 25 213 130 139 50 34 20 168 161 204 122 144 220 122 139 76 31 145 235 129 199 5 139 231 252 112 
114 253 146 97 190 252 49 246 231 9 180 173 68 174 208 119 208 139 246 14 45 73 122 137 233 208 244 46 1 186 231 135 163 7 160 184 56 18 97 15 162 195 191 221 194 7 73 132 62 125 106 210 129 115 145 141 3 16 142 79 202 210 64 148 
49 60 109 18 232 200 241 73 60 35 27 90 152 153 84 28 76 206 1 109 142 176 171 198 190 169 93 19 239 25 78 193 162 3 192 24 212 7 40 203 60 144 143 205 206 78 56 103 131 231 131 136 92 233 17 92 165 4 41 31 119 118 91 52 
128 198 99 113 6 181 80 190 42 114 229 222 106 13 63 140 106 46 184 202 244 7 12 118 61 135 186 30 106 208 173 21 83 236 28 198 134 187 175 73 143 48 227 52 118 189 175 180 138 12 104 220 93 240 226 60 16 155 216 182 208 17 141 141 
161 221 180 191 90 2 141 149 241 52 82 120 249 72 209 6 105 234 90 101 159 142 219 215 164 169 74 143 178 32 67 196 244 0 243 3 140 113 52 201 219 229 249 81 252 149 237 171 145 46 87 14 195 199 65 111 132 23 217 82 23 229 23 225 
211 191 160 59 36 239 235 14 210 171 162 104 134 140 75 202 138 66 39 127 208 133 90 43 54 78 77 167 8 72 81 12 198 129 133 14 40 102 249 140 96 238 19 100 159 21 50 140 218 140 146 95 206 175 112 52 66 183 110 53 140 49 56 111 
86 175 104 37 162 189 167 106 12 22 21 239 79 24 236 25 11 118 96 86 198 45 201 178 48 185 3 165 171 136 21 47 10 175 18 39 153 220 61 209 94 139 112 174 159 125 191 152 165 102 88 14 191 231 173 204 137 187 214 158 109 53 48 119 
106 234 75 189 22 171 3 232 223 182 236 75 150 44 244 49 46 198 67 44 193 196 102 170 211 39 173 201 219 32 209 109 0 200 218 143 32 17 64 216 22 253 81 110 61 14 210 14 48 253 233 91 212 175 59 117 152 100 81 206 252 50 64 57 
81 178 137 68 191 249 62 200 140 201 102 190 154 9 163 84 50 115 18 65 1 141 115 85 96 218 138 84 217 81 196 4 230 14 30 133 251 72 67 225 199 131 244 228 184 6 173 46 189 144 134 134 79 71 87 113 178 241 31 3 120 102 167 246 
72 69 98 249 221 231 152 74 81 145 195 135 156 238 58 194 88 188 12 211 199 197 47 242 22 17 218 133 227 90 47 54 254 192 29 73 108 190 133 44 179 93 155 80 80 167 144 56 139 95 110 208 111 239 67 255 21 162 129 127 34 19 165 237 
144 230 23 28 177 181 81 175 112 77 68 231 219 27 247 185 222 225 114 36 81 173 218 193 54 12 221 156 59 123 81 66 134 30 23 27 178 181 70 250 21 203 133 243 69 48 185 109 218 170 225 119 117 232 61 96 1 183 182 129 56 121 122 94 
105 210 231 238 121 164 170 54 41 62 40 29 150 208 29 123 6 34 130 115 225 134 181 3 254 12 212 217 32 244 105 104 193 105 77 60 14 108 198 138 50 14 243 12 215 226 106 11 234 178 31 190 159 113 136 210 182 113 254 74 252 214 103 137 
20 75 18 173 119 243 226 31 186 162 175 104 16 78 233 71 14 192 126 0 183 143 254 246 176 79 254 124 211 6 186 233 236 223 254 234 190 35 70 29 72 100 36 219 71 252 226 85 252 182 104 226 47 202 97 151 116 15 154 25 173 108 170 175 
208 143 216 155 235 226 57 171 100 187 25 11 134 212 156 93 57 250 165 11 17 9 247 220 139 23 155 198 147 240 129 4 73 195 106 104 4 26 4 241 151 15 87 160 212 189 97 136 79 246 253 37 101 52 10 238 124 209 200 45 139 122 133 15 
222 225 122 247 19 178 240 24 105 201 167 67 58 162 119 253 197 16 56 213 49 50 224 245 207 163 235 246 160 242 0 249 23 82 209 243 31 146 67 72 96 79 207 156 190 104 39 229 35 178 29 197 127 237 193 24 12 247 202 201 215 64 56 233 
124 126 55 2 49 162 69 168 6 10 151 82 107 248 185 104 242 67 118 157 86 76 247 127 189 52 47 76 58 76 118 8 150 205 115 204 80 202 64 97 226 98 201 14 70 58 117 173 185 43 9 4 191 55 201 83 103 194 224 42 208 254 1 125 
236 168 79 250 132 242 122 154 124 192 43 119 89 22 163 221 0 209 159 163 192 150 126 188 147 9 165 9 161 63 35 113 6 117 145 52 213 2 60 124 93 138 135 54 171 117 138 31 80 159 255 34 100 81 95 225 202 113 72 146 182 245 34 12 
109 157 2 33 76 226 206 47 12 42 163 242 68 61 115 156 47 252 243 40 176 81 180 235 147 98 143 108 22 10 71 117 168 137 106 106 240 122 120 218 17 6 71 84 45 88 166 124 40 80 65 93 174 124 197 1 119 68 68 63 201 100 218 213 
63 160 145 183 202 178 130 166 245 136 61 3 109 172 107 230 192 4 178 107 101 187 217 76 252 127 45 181 216 237 35 83 187 73 62 175 224 115 51 186 63 22 76 168 12 35 10 2 129 126 14 247 221 247 57 244 173 123 19 116 74 139 105 24 
163 238 59 250 60 163 213 63 119 26 59 235 19 164 202 249 242 39 29 172 31 22 46 32 15 160 189 36 39 40 246 76 127 246 78 65 230 44 174 92 38 251 211 115 137 22 245 243 155 103 166 47 50 2 254 248 172 87 245 110 120 171 16 21 
216 201 64 44 228 244 7 58 210 33 220 233 118 99 209 23 5 167 115 43 30 161 241 165 11 6 129 250 68 252 0 158 52 207 216 98 64 229 39 0 6 244 30 244 226 114 167 142 183 77 74 70 236 221 81 79 180 23 42 111 147 3 14 13 
30 112 224 140 2 230 88 215 71 220 96 61 214 43 190 128 57 195 244 40 163 156 100 29 48 240 184 117 109 168 129 139 27 20 30 81 48 222 224 231 31 65 108 108 89 118 96 20 20 111 57 122 75 200 116 56 6 251 243 182 219 211 163 63 
181 35 92 90 212 183 8 87 21 139 8 40 116 59 211 114 207 187 224 228 237 72 199 200 190 158 163 215 228 108 186 82 115 5 96 78 245 88 24 80 178 34 253 25 46 98 96 195 243 14 179 13 143 4 165 244 225 67 143 131 145 91 15 235 
221 34 242 214 156 169 88 249 124 110 18 232 143 211 79 47 6 207 120 158 60 228 88 228 246 81 128 96 233 136 234 51 124 226 220 154 208 146 15 123 253 216 17 61 159 119 232 221 146 104 248 62 249 208 39 193 133 48 62 22 244 219 146 82 
215 174 229 65 153 251 135 253 189 198 192 191 103 52 115 246 30 64 251 150 208 176 89 179 22 71 145 78 186 61 81 111 118 236 212 116 255 204 6 168 67 161 233 23 238 243 55 161 50 191 73 78 200 108 55 225 50 0 65 176 68 148 109 178 
226 6 114 218 11 237 213 163 23 210 82 237 60 157 125 7 87 77 169 13 233 236 9 116 96 194 21 227 153 202 47 68 162 98 135 28 196 70 60 23 193 191 196 232 90 24 141 79 20 82 228 123 60 25 23 147 41 246 214 144 193 197 223 77 
63 106 219 225 51 192 130 44 201 210 6 176 79 78 175 162 242 54 194 65 200 217 168 103 20 2 76 94 197 111 197 244 63 132 53 210 94 65 241 9 184 114 226 238 35 37 43 40 120 97 11 7 150 21 5 24 169 79 63 246 172 174 41 98 
44 26 94 150 79 178 207 215 23 6 30 74 223 135 72 8 46 60 135 116 172 182 119 205 112 69 119 255 126 108 82 191 141 147 31 214 14 252 101 189 105 248 131 107 138 91 79 107 156 45 254 49 20 162 68 174 242 76 187 34 67 144 137 50 
235 87 62 58 161 5 251 228 59 175 217 250 44 137 136 120 75 157 55 230 214 195 180 228 182 205 213 7 4 2 22 227 205 206 131 105 18 183 217 116 19 147 232 158 206 248 59 88 194 245 251 58 248 255 17 151 68 46 139 85 201 170 65 251 
