P2
64 64
255
188 4 181 178 121 28 191 227 68 232 22 237 51 53 35 46 125 109 117 130 222 108 78 184 61 144 97 67 141 15 218 50 241 142 159 99 35 239 213 243 22 106 167 248 218 223 66 115 193 106 36 128 192 57 151 208 23 154 120 89 52 88 61 76 
213 72 55 72 110 31 19 205 202 134 167 243 244 113 236 92 88 172 70 103 38 182 12 166 247 211 68 147 179 93 174 126 178 91 5 202 33 85 129 89 168 102 160 69 73 146 38 209 140 90 98 159 217 142 180 35 37 99 76 87 209 197 52 176 
206 238 145 81 6 56 38 128 247 47 25 86 161 235 250 186 163 157 1 144 161 103 151 45 232 113 24 14 85 57 216 202 115 42 100 70 227 113 10 40 0 12 155 142 196 35 111 255 230 156 170 162 69 234 190 173 138 37 49 33 8 96 161 181 
231 55 5 15 129 167 53 58 12 35 173 85 122 227 141 136 157 128 229 61 143 190 48 140 81 168 30 246 178 227 151 87 115 60 252 22 168 131 176 159 97 156 215 19 138 211 93 61 16 112 58 201 69 139 245 176 134 34 103 247 27 105 194 153 
94 97 210 194 31 172 130 61 72 160 161 48 189 154 230 7 134 149 50 174 48 251 22 3 113 186 149 139 10 155 43 99 241 208 14 122 176 203 179 254 8 87 148 20 219 225 49 204 73 22 84 84 24 180 154 108 89 153 47 25 72 33 217 158 
117 174 56 168 33 136 76 201 235 232 55 39 172 79 68 118 158 28 41 35 197 94 137 210 135 231 189 11 158 162 212 48 48 38 216 179 59 138 83 133 55 123 18 210 247 141 41 235 209 207 56 132 254 162 236 31 67 203 200 200 209 198 37 3 
107 93 119 3 198 122 211 28 52 58 174 123 134 66 232 21 38 86 9 221 140 40 202 58 213 109 215 184 172 54 211 254 109 126 156 0 138 255 209 117 45 75 146 140 31 23 135 218 232 218 36 151 56 151 43 11 133 246 114 67 246 154 230 8 
128 175 208 18 79 194 87 120 103 214 70 107 139 180 16 36 93 130 18 27 200 151 23 122 155 142 33 209 118 153 103 11 234 24 154 161 220 107 108 13 42 4 83 130 146 192 138 218 207 119 90 208 4 210 151 111 95 92 109 202 245 220 93 238 
244 227 130 21 250 161 25 28 192 252 64 55 251 228 254 228 132 224 132 29 182 237 178 210 23 137 221 150 59 11 208 153 230 53 16 214 113 12 101 141 111 231 149 244 144 199 115 42 196 230 24 108 164 147 113 139 15 60 250 157 16 205 200 243 
8 57 205 76 9 85 88 72 128 237 219 32 23 18 241 147 217 177 159 36 151 106 218 130 139 158 74 72 60 202 78 230 161 20 64 223 137 36 250 54 58 53 153 34 89 108 129 9 10 104 161 172 87 26 248 160 214 215 87 253 134 171 105 90 
251 241 242 248 187 32 84 61 231 232 87 100 30 126 41 116 158 52 164 110 172 76 208 203 55 14 169 37 184 24 34 53 93 246 105 253 101 242 109 70 205 45 158 77 45 239 243 186 222 60 50 209 94 168 108 236 245 108 198 41 152 184 128 96 
13 75 47 88 80 66 77 58 54 45 244 69 80 104 231 196 18 169 210 61 52 213 211 236 89 24 56 111 239 52 139 195 86 25 204 111 68 183 253 255 104 16 228 180 77 145 12 122 130 162 13 26 248 124 13 177 171 58 135 97 132 51 75 70 
126 136 198 172 9 249 132 127 172 253 243 2 237 17 106 196 117 80 105 209 112 68 35 37 51 252 57 102 33 94 201 210 207 191 167 118 102 177 234 160 73 28 171 152 248 145 9 139 53 218 112 200 101 214 28 47 56 132 216 229 140 93 12 77 
143 231 246 52 36 135 56 76 136 150 147 220 54 184 242 181 8 105 170 104 158 217 0 182 4 250 236 72 142 215 28 161 7 39 60 80 11 34 117 106 178 147 51 55 111 47 44 44 55 37 158 25 229 246 215 164 221 135 251 246 239 117 2 180 
126 168 0 49 227 43 169 226 13 58 20 18 106 157 191 214 9 53 212 68 0 213 170 224 12 83 143 87 119 222 197 112 63 145 202 63 116 73 220 156 226 180 189 211 240 171 180 157 200 194 212 79 184 29 128 82 217 133 47 211 238 186 109 187 
142 11 35 226 134 37 23 127 121 41 182 228 201 1 18 104 186 243 39 164 213 118 98 226 139 69 100 210 27 179 3 127 182 62 145 130 224 102 97 117 25 192 136 171 189 70 225 30 40 241 84 169 31 138 87 120 108 189 180 188 199 111 141 163 
253 81 158 135 75 181 195 102 11 161 186 146 148 34 41 169 91 227 227 200 94 254 103 252 194 18 170 249 186 150 22 15 172 109 210 89 143 186 68 56 153 245 212 255 21 63 243 240 153 242 92 104 89 125 154 86 214 111 203 241 188 209 163 171 
10 185 180 96 116 28 236 212 6 228 95 92 9 66 70 219 42 70 72 240 217 173 249 110 240 250 161 13 149 200 62 95 96 94 204 5 194 132 195 34 157 149 226 16 56 214 43 82 88 6 47 202 166 54 139 44 87 219 179 179 12 34 238 19 
247 131 162 174 64 153 210 10 167 49 229 131 106 161 169 61 105 91 151 93 136 193 89 121 85 59 137 76 235 135 188 175 22 81 191 197 183 4 32 117 106 223 240 29 103 75 200 132 166 108 10 17 71 246 105 59 48 66 172 65 248 161 174 27 
4 240 170 176 239 108 181 73 47 200 140 70 246 125 144 16 86 98 15 78 170 124 197 92 49 23 163 248 252 21 207 63 9 135 235 217 176 122 154 112 62 19 64 102 225 223 10 199 196 100 47 124 122 252 117 194 160 227 246 219 190 142 36 3 
111 62 11 166 194 214 214 208 222 233 149 229 238 24 61 146 52 155 240 3 127 29 127 87 197 205 46 81 8 178 183 80 124 62 145 129 236 39 113 83 90 114 18 43 230 209 50 90 241 46 221 76 129 136 237 1 231 254 210 193 160 41 143 12 
122 175 5 209 247 21 116 224 246 213 63 160 144 177 239 5 65 70 123 189 72 228 199 170 80 157 106 149 79 156 180 33 175 185 240 253 172 74 230 94 253 59 164 173 182 97 126 124 109 11 84 191 155 218 19 57 71 211 126 52 221 179 47 117 
100 130 216 111 208 107 207 183 181 203 202 184 30 136 231 168 188 164 239 187 68 18 219 150 18 200 151 6 18 21 7 242 224 53 72 142 46 35 56 210 103 174 56 43 145 207 48 112 120 58 212 23 9 51 38 169 252 163 60 115 182 107 68 127 
109 248 197 194 141 23 40 151 90 11 118 108 215 222 99 187 231 244 140 61 179 230 253 90 75 141 246 227 144 92 239 3 81 243 217 115 180 242 167 238 217 11 13 229 184 92 135 115 83 251 158 147 10 210 103 145 73 173 76 190 105 145 14 104 
213 80 11 9 108 90 189 191 39 214 132 252 252 241 165 127 2 118 146 131 213 160 108 54 60 44 198 108 9 177 172 149 65 52 227 236 125 247 115 242 144 147 99 27 106 70 196 199 61 142 241 115 222 247 20 49 109 49 236 85 56 101 206 114 
221 201 234 133 175 115 208 111 91 107 51 169 204 3 236 51 75 107 65 205 235 128 104 106 36 229 71 226 190 85 126 231 240 55 167 58 202 115 220 30 208 133 122 14 232 208 37 171 118 52 13 248 197 226 111 201 169 111 94 121 98 40 195 220 
196 166 163 116 149 162 160 232 55 10 195 177 134 83 120 23 5 18 218 92 52 198 49 55 67 248 185 132 237 135 166 57 159 61 100 156 217 165 35 179 215 33 147 252 112 55 236 95 62 44 50 97 255 212 183 154 59 168 225 105 40 25 45 230 
202 36 116 24 94 39 110 105 248 243 116 86 109 34 138 107 108 171 156 111 240 179 8 220 217 166 93 146 216 135 98 203 141 132 91 82 236 206 135 240 229 167 237 39 68 189 89 35 214 182 161 238 205 12 44 227 101 27 181 101 200 120 77 209 
46 133 159 176 75 66 120 50 227 102 135 216 190 175 97 112 195 118 199 70 95 134 44 153 39 46 114 76 191 149 245 222 250 78 202 156 66 44 73 21 59 88 200 207 163 160 170 56 125 18 153 223 110 202 15 228 103 8 27 174 132 134 98 219 
52 8 100 125 155 52 0 131 52 164 58 117 187 58 61 101 74 179 156 34 194 127 221 174 108 208 56 242 224 242 156 177 38 218 243 187 28 1 167 99 23 115 101 50 205 34 33 221 114 129 90 117 34 78 159 222 127 175 82 130 155 129 172 70 
24 237 1 190 142 60 69 156 44 236 208 111 163 3 94 138 63 163 90 65 87 223 92 92 232 205 240 197 125 220 153 132 82 104 21 237 184 140 227 24 187 56 3 146 3 131 253 82 248 66 36 239 42 217 28 16 239 81 154 35 78 171 107 82 
27 116 184 178 100 154 136 190 12 126 134 5 182 74 5 31 228 133 65 229 96 229 231 226 220 100 216 4 213 149 42 151 188 57 112 116 88 14 60 118 103 231 226 46 132 1 126 216 77 149 56 141 196 170 198 186 246 45 51 208 219 67 223 61 
126 222 200 156 93 143 7 40 19 155 158 119 52 80 112 101 121 153 145 78 29 209 192 128 135 213 50 239 40 93 146 43 167 140 69 144 59 197 242 188 89 193 66 71 144 222 228 174 177 186 213 143 50 1 222 28 212 131 94 202 132 138 73 73 
127 106 113 185 186 89 4 27 129 129 86 5 94 84 225 154 60 32 139 186 204 227 39 118 40 96 61 199 183 114 14 127 80 161 211 127 162 243 70 43 211 4 99 27 103 89 112 19 100 242 59 54 179 30 163 118 202 148 89 79 136 190 232 181 
96 88 243 75 186 58 190 213 151 114 241 240 115 150 152 1 111 89 109 107 175 91 90 5 1 70 58 203 192 22 224 211 249 184 90 131 203 215 118 2 20 243 134 236 74 179 97 74 166 124 170 193 136 66 85 9 23 158 102 161 39 33 252 193 
96 233 143 145 157 113 118 152 147 173 172 119 179 87 211 215 81 132 121 160 5 122 155 107 82 197 103 59 133 136 70 103 224 18 26 219 248 177 196 129 92 203 234 249 119 42 247 144 184 152 99 112 240 172 52 20 251 227 197 255 162 242 198 174 
192 91 132 203 164 63 106 163 183 115 200 218 94 214 212 93 34 225 239 153 15 127 41 235 89 31 6 87 70 8 131 124 71 237 84 199 104 194 112 232 235 206 207 130 48 0 114 39 216 134 165 131 43 156 129 215 182 162 180 170 56 114 133 187 
191 240 18 57 14 227 220 54 66 3 134 90 181 82 218 212 35 176 13 150 11 170 68 194 88 148 86 95 65 215 212 81 110 139 71 136 92 73 184 119 2 58 118 200 181 116 19 78 73 135 176 59 121 82 122 147 136 28 117 224 41 224 121 40 
157 231 122 28 27 156 12 146 116 157 37 53 247 14 37 123 146 50 21 216 59 60 44 50 142 98 152 148 184 52 123 38 147 44 51 93 18 134 222 111 224 81 29 10 68 199 25 69 72 218 196 215 26 15 98 134 178 143 71 227 181 124 226 53 
154 129 250 179 11 173 56 246 142 129 230 173 100 71 246 147 177 166 70 158 222 116 34 121 60 203 11 53 234 95 182 60 248 14 88 134 204 185 33 15 197 83 6 136 31 55 196 76 23 191 34 151 79 18 118 242 115 61 106 242 29 134 0 34 
246 252 212 62 31 83 162 162 207 239 7 1 61 63 140 90 192 76 224 40 52 146 101 218 161 14 238 130 23 152 200 209 220 115 247 67 202 35 193 151 242 126 113 130 133 6 85 164 245 118 9 187 87 155 247 23 12 101 31 78 160 62 20 48 
242 154 71 253 149 208 136 214 118 40 202 114 192 53 39 18 253 101 36 183 126 214 53 146 252 107 132 188 128 32 238 39 127 154 78 213 74 3 255 71 166 20 156 57 182 115 10 140 34 64 185 132 114 234 38 51 187 72 165 53 126 229 93 158 
204 155 148 49 175 99 45 211 198 107 110 63 47 105 7 250 170 48 80 138 251 128 211 227 144 35 10 34 99 53 106 125 34 196 160 122 142 153 26 96 33 84 201 235 243 191 37 68 222 92 114 48 224 64 66 136 194 36 60 233 247 186 27 172 
199 61 250 25 173 76 206 215 253 248 52 167 201 28 109 83 6 237 166 224 235 209 125 11 154 117 194 244 2 25 122 20 4 47 42 116 212 37 82 33 163 127 55 219 123 40 229 13 107 10 117 2 226 220 140 85 96 59 36 169 76 253 143 155 
32 194 184 245 205 203 173 36 91 16 90 237 207 140 151 91 81 220 102 252 142 8 117 77 92 161 235 114 156 12 97 42 101 29 45 3 95 232 231 202 109 211 38 70 142 240 139 38 5 138 1 55 183 254 66 218 213 204 158 182 188 238 248 170 
25 105 17 5 81 33 9 250 32 241 34 78 128 251 200 84 204 61 206 27 37 102 251 230 21 231 197 220 114 76 92 1 132 205 234 101 108 32 25 156 189 146 215 109 108 86 86 206 239 29 86 17 159 231 166 88 98 24 232 78 135 206 150 25 
241 114 66 138 120 141 34 151 140 221 203 12 27 169 61 125 181 81 32 127 239 41 77 24 4 135 144 115 195 27 172 216 165 127 160 220 61 15 41 213 213 251 136 145 86 155 133 72 104 2 180 206 219 213 247 13 70 94 68 179 237 220 169 40 
232 29 141 195 130 79 56 61 224 20 150 102 227 212 55 22 78 87 155 103 44 147 173 33 108 194 141 118 207 184 146 240 4 116 144 167 17 245 86 183 244 79 123 241 138 253 91 209 177 121 92 176 169 10 118 59 193 221 242 36 47 88 113 24 
63 171 49 240 176 168 140 43 90 212 193 156 21 190 247 96 215 143 127 19 28 227 90 67 139 215 251 37 214 99 77 135 226 235 248 6 40 16 225 129 91 204 239 206 74 190 21 171 9 194 141 247 75 197 97 34 19 216 48 226 140 130 47 39 
52 91 110 82 64 214 93 161 61 95 142 238 243 166 188 154 142 58 13 196 0 89 148 190 161 7 26 193 24 93 30 223 127 36 26 58 194 162 8 116 72 180 37 102 214 29 245 21 176 30 135 225 1 71 250 0 124 140 64 43 68 155 34 151 
9 109 132 39 116 27 235 224 198 244 60 157 188 204 199 4 181 150 131 184 22 54 155 208 238 144 42 137 214 229 67 55 28 95 53 130 32 234 13 206 253 70 92 251 108 90 58 79 231 204 138 176 9 206 128 23 61 59 97 65 151 226 138 168 
254 34 180 177 140 183 118 39 54 211 11 232 176 112 86 222 139 229 35 49 161 184 176 187 178 180 108 189 79 59 254 208 247 221 137 30 129 41 47 209 185 194 212 204 78 182 36 153 236 12 215 163 165 156 51 166 149 36 211 99 198 151 168 152 
81 184 61 47 198 232 63 182 206 60 60 15 15 211 171 105 80 103 45 111 222 33 18 190 46 178 31 157 195 159 142 232 82 220 87 78 37 157 174 189 189 105 205 25 187 112 243 52 1 30 173 251 20 240 84 237 196 135 215 210 16 251 186 169 
68 113 95 226 100 240 133 205 205 112 14 83 26 52 5 228 69 90 223 176 14 177 1 26 160 202 131 105 115 82 52 193 109 158 222 83 76 136 203 208 72 122 135 35 243 200 232 95 101 67 76 246 150 11 34 45 11 164 172 204 181 76 2 26 
22 140 91 8 165 14 136 173 116 174 193 242 16 211 164 143 168 0 123 54 114 166 190 13 75 61 217 98 158 146 46 155 134 99 94 107 55 41 196 76 154 53 67 41 55 254 66 90 88 186 244 214 107 43 221 164 169 188 146 147 245 204 192 43 
7 74 111 227 201 130 136 149 0 54 149 46 49 241 201 170 187 152 64 64 73 66 135 217 108 73 95 199 132 162 190 180 223 105 23 216 37 192 219 112 243 218 64 107 198 83 65 102 27 195 230 218 212 146 197 148 222 14 201 102 17 186 50 29 
86 233 221 178 17 140 198 197 182 73 203 70 189 205 179 118 190 98 110 14 212 196 158 189 69 48 87 216 101 191 35 78 183 242 74 218 86 142 80 124 147 170 190 41 224 6 38 194 237 158 97 67 16 127 27 61 234 218 146 134 72 87 154 46 
71 171 229 182 188 109 129 125 210 37 162 123 245 167 162 49 239 159 70 224 81 108 67 250 21 50 0 214 129 42 158 167 79 61 54 175 10 210 97 176 187 228 254 164 197 87 47 173 15 140 165 79 95 51 30 221 14 96 43 49 218 225 55 160 
22 208 197 46 10 100 249 253 150 12 90 12 24 191 214 30 144 141 7 247 2 123 180 206 28 141 155 0 25 36 109 2 229 138 27 153 130 204 80 77 171 200 62 27 182 134 158 106 190 204 242 64 2 236 14 182 136 225 214 169 7 154 73 179 
4 150 191 89 59 177 110 134 64 62 51 57 102 85 144 122 224 110 241 146 38 47 51 123 155 131 102 150 108 236 210 156 186 26 57 215 253 188 92 146 160 150 192 206 241 212 178 54 62 158 137 85 55 236 43 7 154 156 211 45 16 194 17 165 
82 63 18 122 143 149 33 87 18 249 110 66 32 170 14 134 31 130 68 241 254 202 255 64 208 83 163 216 186 194 12 183 16 44 209 169 187 227 197 191 222 143 196 253 185 128 172 83 205 66 169 207 64 114 182 16 132 209 96 254 52 151 205 184 
62 10 254 206 71 78 81 177 75 127 74 103 132 253 146 131 142 7 64 85 200 140 88 94 253 61 145 6 68 231 92 146 36 0 33 80 252 128 204 20 162 242 136 232 75 202 202 0 171 249 146 236 93 191 238 17 132 192 191 90 179 91 191 43 
10 55 195 151 162 30 62 210 45 15 7 233 212 142 92 176 108 63 38 252 198 179 126 19 97 130 113 97 72 154 0 109 56 214 107 11 1 211 176 210 46 255 78 208 232 242 78 125 24 2 132 238 204 17 19 75 220 170 47 131 205 77 39 62 
245 6 162 20 224 68 40 252 243 233 229 7 79 158 170 78 249 105 53 40 55 129 178 161 61 97 130 40 8 27 58 136 139 239 239 26 9 28 177 56 194 246 85 244 209 57 120 10 85 157 192 20 207 170 101 253 203 206 240 184 195 173 67 50 
