P2
64 64
255
14 128 158 212 174 32 121 79 90 8 68 173 74 88 39 192 23 32 140 162 133 219 139 84 159 57 165 165 10 34 182 85 147 247 37 123 10 27 94 36 83 178 130 61 186 168 92 179 135 245 152 216 210 32 47 9 153 2 38 142 16 205 120 193 
56 77 81 114 179 109 124 139 215 252 31 240 1 177 166 169 44 109 253 67 194 193 2 115 177 176 58 253 194 182 194 212 39 9 137 131 82 30 189 203 14 111 131 142 200 124 235 236 45 15 35 171 251 197 235 220 16 202 72 187 200 228 125 216 
133 179 55 116 143 55 8 46 31 146 22 223 182 15 21 194 179 100 114 216 37 52 209 138 222 216 186 145 201 95 143 19 125 211 194 14 17 190 68 250 50 237 65 170 116 116 10 116 230 243 83 145 233 23 158 198 66 99 247 68 109 48 226 206 
52 242 146 25 129 190 91 120 113 9 106 185 169 179 180 73 237 68 44 159 239 117 57 216 100 242 103 159 93 94 93 80 213 151 15 93 134 60 52 240 2 109 251 210 254 210 249 139 241 223 102 203 222 86 138 8 109 13 114 105 65 241 231 227 
134 75 161 162 201 66 183 170 13 161 90 190 27 219 195 128 25 77 106 219 94 194 121 158 133 60 128 105 192 242 106 205 111 149 176 175 242 215 204 237 187 46 241 69 167 213 249 114 142 21 159 151 25 194 238 225 211 8 249 104 131 104 205 87 
186 253 164 77 168 4 91 3 51 155 38 46 75 201 131 167 119 191 108 201 180 93 209 26 128 248 69 46 50 91 248 201 140 11 229 68 147 208 76 50 158 112 99 67 174 190 73 104 253 211 59 55 218 156 10 146 179 149 204 131 116 211 210 107 
16 72 219 92 92 67 135 195 36 54 15 74 121 188 50 252 72 218 115 170 49 133 129 142 149 101 247 47 241 217 69 132 107 59 238 92 171 101 245 254 236 116 145 12 83 204 40 173 127 92 123 234 97 35 31 89 78 242 44 249 82 116 57 94 
200 109 135 14 39 63 124 42 31 178 83 81 229 244 19 193 203 223 189 191 19 123 202 58 5 196 212 171 63 173 148 63 77 100 12 56 121 216 5 144 228 121 188 224 214 62 217 129 83 237 160 241 239 151 107 120 227 97 88 11 95 139 63 112 
34 170 231 163 73 56 121 121 100 79 52 131 207 178 99 53 64 13 140 71 156 126 235 92 15 83 30 226 91 22 34 57 112 199 126 23 62 104 190 43 199 191 35 0 120 87 153 37 185 200 233 139 195 56 48 46 177 34 144 247 218 86 37 225 
95 65 59 92 0 111 190 239 52 78 241 32 120 53 99 152 231 164 32 131 11 206 36 54 243 84 21 20 133 84 49 178 22 162 133 57 56 85 95 12 211 134 7 171 120 84 170 216 241 43 151 248 29 71 174 187 251 115 20 255 4 23 44 242 
190 113 195 119 142 35 139 204 205 238 203 105 31 189 84 43 0 229 183 177 160 171 181 7 241 7 247 129 254 167 0 234 126 55 95 222 169 224 41 117 74 14 166 34 22 119 75 218 60 89 232 120 61 2 35 96 254 150 37 98 28 13 147 226 
127 123 192 54 50 148 33 80 113 111 1 157 4 138 117 44 204 15 147 19 156 85 223 15 74 170 6 106 5 80 207 34 232 197 78 71 208 71 91 165 107 152 66 163 146 255 188 107 217 143 30 75 100 171 209 91 252 202 2 97 97 120 154 241 
226 158 113 217 44 2 190 188 96 17 211 252 104 221 7 221 138 98 243 232 61 13 225 142 60 127 129 14 218 142 222 153 149 140 145 179 237 204 52 220 119 99 26 112 45 44 61 204 8 15 120 178 209 130 247 239 52 79 235 58 22 152 130 96 
40 25 22 158 188 174 165 78 216 21 129 199 137 244 72 126 122 30 23 113 197 18 251 197 9 197 168 173 189 161 110 143 196 205 104 98 65 175 247 91 172 175 110 200 38 62 15 60 9 23 55 236 196 197 213 89 230 102 32 47 120 174 138 109 
144 47 239 199 35 215 19 73 27 186 75 60 169 17 122 77 221 131 63 236 116 164 109 243 241 188 188 136 239 201 190 68 181 199 20 149 11 46 225 96 76 189 127 235 189 118 113 251 29 234 153 57 125 182 171 218 82 78 226 127 201 249 242 90 
90 29 61 147 160 189 73 234 104 64 114 157 8 116 220 140 242 210 172 155 136 4 120 88 50 164 251 222 174 71 14 249 168 186 212 138 139 139 52 45 150 203 140 26 50 19 163 73 131 197 224 218 61 148 186 179 185 71 112 107 72 185 250 103 
199 37 63 66 115 160 136 114 255 231 53 41 228 91 175 122 249 74 157 189 67 112 91 52 14 190 167 239 60 90 158 236 222 230 232 131 1 5 47 1 202 27 213 148 198 85 230 103 123 234 75 13 67 160 65 35 90 145 10 49 53 47 226 210 
21 134 53 21 221 193 15 34 32 240 212 33 127 8 49 87 50 43 82 146 228 42 86 200 196 73 0 251 217 66 175 95 149 140 144 191 174 220 18 29 41 237 154 153 184 125 121 148 69 152 27 20 207 24 128 106 117 109 240 19 208 154 235 221 
134 128 96 74 28 95 31 57 12 154 143 195 24 186 164 100 221 182 12 91 171 114 169 83 148 133 68 66 195 63 128 146 16 235 12 127 209 81 29 192 242 127 28 105 72 201 155 16 34 15 142 46 33 62 184 201 74 25 99 80 90 58 84 199 
89 83 254 35 114 186 246 248 2 37 167 81 239 178 71 223 59 42 10 87 217 134 149 21 191 178 181 5 60 146 81 195 140 67 157 1 170 163 145 42 101 19 154 68 182 123 143 27 81 143 230 156 122 81 40 127 26 215 162 41 18 79 94 208 
207 64 81 224 30 19 214 157 66 209 91 10 69 46 90 10 139 199 140 198 173 168 89 78 132 17 146 131 131 122 98 52 74 212 130 135 121 18 173 155 194 232 84 107 67 210 146 246 18 89 98 157 25 146 16 204 36 231 237 220 56 25 71 56 
39 134 152 191 97 168 254 106 13 223 235 47 88 112 30 37 13 205 210 232 103 23 53 63 35 225 27 252 216 55 244 36 139 222 251 80 126 222 177 83 74 62 138 29 45 15 230 224 165 172 66 113 62 63 176 240 168 135 132 171 12 217 81 64 
160 101 20 2 122 187 174 158 162 142 152 255 106 183 210 110 2 124 28 254 71 19 105 39 220 98 145 177 124 9 70 211 142 162 73 157 250 71 221 147 60 85 125 155 183 112 202 25 75 200 199 88 41 154 72 44 230 249 168 213 207 206 187 39 
125 30 3 232 169 139 39 122 65 30 160 185 186 67 182 39 169 21 171 71 141 220 54 70 239 212 51 224 174 49 152 130 148 95 171 172 44 142 114 154 216 110 107 35 30 55 126 225 67 237 48 146 27 226 25 190 31 124 152 155 192 56 197 45 
251 239 167 177 46 89 168 60 42 207 69 160 137 85 10 143 66 215 190 3 122 179 219 220 157 120 65 203 174 237 42 112 219 86 97 191 85 242 175 168 94 200 150 247 164 164 66 121 205 92 189 96 83 87 98 232 146 80 148 59 31 88 176 146 
92 26 63 158 73 99 113 38 157 226 199 241 22 44 15 230 13 2 149 114 77 215 152 42 37 141 251 178 188 128 61 221 165 197 171 21 179 180 212 254 15 163 62 86 135 245 87 32 41 84 174 1 17 58 99 234 127 182 221 247 45 109 186 151 
223 223 12 238 59 235 194 119 219 149 100 238 161 8 4 109 74 215 113 213 70 136 173 111 199 83 161 211 25 39 16 9 49 238 202 239 136 18 34 218 42 64 161 128 9 108 252 22 152 21 68 181 149 202 93 2 38 237 177 14 40 183 37 123 
196 124 77 225 67 48 219 111 35 43 94 214 106 41 41 98 58 149 144 106 166 7 91 235 196 11 116 112 3 36 227 53 191 16 252 139 19 78 215 126 239 222 1 182 106 72 113 155 89 223 190 189 32 71 143 114 200 53 82 193 82 118 49 126 
75 51 65 183 161 115 253 79 181 225 244 233 177 208 190 7 28 124 52 115 172 146 225 223 91 243 179 200 188 181 246 160 144 107 131 43 149 167 53 42 158 189 157 55 232 201 247 240 172 243 92 87 241 241 57 121 164 206 255 78 234 234 28 225 
181 67 43 176 150 242 103 86 210 249 102 103 183 59 4 156 48 204 157 48 152 107 127 137 204 77 158 27 132 29 138 138 227 64 159 14 76 93 123 28 120 29 182 67 197 47 205 84 209 144 94 197 72 9 155 87 250 249 249 247 49 84 40 226 
65 236 72 13 96 239 90 196 184 177 244 145 187 172 57 95 183 198 9 223 170 210 117 43 87 88 118 170 153 153 222 51 248 206 142 117 122 177 234 150 187 62 138 26 64 187 50 7 9 246 5 70 101 206 245 77 11 244 126 251 101 243 148 195 
47 110 218 13 65 169 20 217 169 76 223 166 253 99 160 146 240 168 186 194 34 5 4 4 61 85 122 179 61 107 50 220 15 85 146 158 94 225 193 215 170 97 91 253 154 172 105 73 147 101 144 27 137 128 136 154 21 1 208 154 200 7 160 196 
192 10 32 240 120 97 215 214 228 7 102 230 190 158 118 116 27 180 239 24 65 70 106 85 188 130 234 120 175 209 198 195 105 21 234 203 56 47 64 31 130 197 104 42 17 66 175 91 175 30 63 131 243 95 147 126 90 96 46 21 153 209 141 35 
50 255 90 247 70 85 226 250 170 35 201 145 61 159 252 69 120 42 232 34 70 212 234 92 22 33 6 57 47 14 219 42 68 79 214 59 73 219 167 174 133 170 241 227 231 189 70 124 157 96 82 190 227 172 86 57 25 79 217 171 25 144 154 34 
199 141 200 97 234 199 117 133 58 225 73 232 185 165 115 70 71 72 229 30 113 239 193 91 139 113 14 52 254 95 176 81 226 66 151 47 208 35 54 197 241 81 55 104 91 94 109 236 158 107 10 12 153 165 18 11 147 16 15 156 135 132 7 0 
190 245 171 110 163 247 209 183 212 128 36 42 117 240 26 181 201 80 39 78 3 215 49 145 89 179 67 171 91 6 133 118 131 46 108 229 13 73 46 163 8 248 121 247 174 100 100 235 241 127 166 173 86 141 5 53 6 226 18 40 35 237 20 253 
88 117 66 94 180 35 53 209 184 65 156 151 174 193 50 212 61 129 237 241 59 205 120 63 194 38 228 221 134 65 155 219 101 83 149 159 64 140 206 136 10 225 247 210 30 15 107 186 214 221 102 226 89 161 113 246 180 5 33 144 45 11 1 89 
211 79 205 114 90 141 225 18 38 98 240 112 166 87 249 227 227 27 119 71 89 16 217 164 5 9 49 10 191 83 48 191 202 242 82 157 170 44 86 181 53 76 241 56 237 160 195 152 141 196 138 234 226 34 150 143 220 186 125 19 229 31 15 85 
113 194 140 232 215 115 21 186 95 37 97 243 156 242 177 32 252 95 6 145 157 224 145 255 98 159 107 115 71 121 134 98 241 73 228 29 138 106 6 105 203 119 168 105 90 85 171 197 87 116 83 5 49 81 178 62 191 64 100 241 140 104 125 48 
114 15 192 2 106 24 18 9 162 201 46 98 208 210 153 205 199 139 217 14 71 126 226 147 26 37 209 86 92 245 220 5 27 155 137 97 32 133 31 228 11 164 90 166 166 112 99 129 115 45 255 115 135 109 7 69 155 215 24 106 97 38 139 42 
20 117 168 0 83 185 22 64 47 143 150 252 131 56 242 41 132 225 47 254 152 40 10 157 108 221 163 245 64 5 115 231 134 37 131 167 172 189 224 102 54 18 74 46 15 48 44 13 33 48 209 117 35 183 212 227 178 191 216 191 164 154 122 131 
153 51 132 32 210 152 99 158 71 181 220 2 243 98 250 116 115 161 75 161 207 32 76 95 152 6 33 143 51 236 137 72 116 40 18 50 111 82 137 47 138 1 181 65 215 214 69 168 161 188 6 74 69 109 89 88 67 57 229 47 149 3 137 124 
64 140 148 164 40 244 57 99 40 125 61 179 98 147 243 239 212 9 106 56 45 166 229 24 222 224 139 101 115 231 96 104 36 229 116 63 167 132 91 128 73 178 220 31 61 161 237 146 52 17 224 50 46 209 215 229 143 131 125 250 117 161 248 84 
73 189 25 203 148 13 214 207 20 38 251 78 16 8 28 216 232 91 206 2 240 248 23 8 126 171 34 182 66 55 55 136 214 155 235 16 150 148 148 152 178 99 0 9 130 208 103 11 25 111 157 110 28 34 140 201 213 223 226 96 131 180 7 75 
244 8 82 213 86 35 124 35 75 241 85 22 59 2 181 113 238 214 182 63 90 88 32 111 185 168 37 194 223 29 79 231 203 139 182 228 124 193 118 183 6 86 96 61 228 166 240 84 144 23 127 60 81 161 186 68 84 141 83 162 255 124 247 162 
130 172 127 3 175 119 106 157 11 28 139 72 37 194 255 250 38 186 98 47 170 5 66 142 206 22 212 201 138 216 230 197 66 243 21 251 151 76 64 30 131 202 61 253 165 96 202 172 217 72 198 222 12 140 161 150 79 203 17 255 41 58 6 151 
50 233 225 147 221 72 224 128 150 233 221 38 13 135 57 177 209 72 19 19 32 63 189 164 254 53 112 11 132 169 62 98 123 21 73 149 41 115 51 11 107 0 213 137 4 64 52 83 53 66 176 148 142 37 127 255 3 219 90 183 66 45 118 108 
68 255 182 199 34 214 31 9 43 151 140 239 51 146 163 216 45 190 7 41 253 70 207 241 135 69 56 201 12 206 150 255 182 48 145 243 113 120 141 192 253 55 106 31 65 133 110 137 227 69 127 156 21 171 150 192 178 252 112 10 137 149 135 97 
249 47 64 223 190 97 102 121 10 102 215 227 215 33 125 174 124 94 128 180 127 91 186 181 171 135 108 66 98 137 47 218 52 132 45 84 176 154 144 124 121 175 59 1 157 111 184 143 35 146 114 56 227 94 37 24 155 110 146 57 62 179 119 180 
143 184 190 25 239 42 245 17 115 151 254 66 58 118 8 115 254 104 190 241 232 189 189 49 169 58 76 182 198 25 71 53 51 82 93 248 36 25 124 128 32 168 136 110 87 62 83 164 53 104 202 167 55 127 108 71 254 114 1 131 162 197 136 167 
72 218 113 183 247 112 12 16 167 105 66 77 155 208 131 104 241 26 255 33 120 172 25 164 193 158 24 102 121 191 32 80 245 217 98 31 15 54 143 11 49 98 146 166 175 51 126 8 90 7 197 41 82 77 172 142 27 71 251 40 243 13 249 121 
99 214 151 248 21 115 236 183 229 28 225 67 58 111 46 203 151 182 133 133 109 105 12 78 52 244 17 145 185 185 250 105 186 89 122 10 176 47 11 93 236 30 152 234 229 141 121 251 209 175 165 254 114 8 35 44 51 45 194 104 115 203 10 106 
33 234 114 28 137 115 212 68 109 240 29 100 88 148 73 222 47 123 143 92 9 50 216 111 64 122 118 119 201 73 19 194 192 18 231 248 71 70 47 182 145 27 218 121 58 140 133 190 218 161 169 103 217 240 19 97 133 100 149 132 97 61 252 186 
192 88 65 100 147 177 4 249 128 38 53 240 52 126 21 225 249 169 93 231 139 73 188 72 39 114 135 88 230 174 173 154 73 69 233 41 21 187 59 86 97 153 152 147 237 113 225 144 181 28 18 163 198 70 188 109 81 45 181 187 254 165 13 170 
130 96 69 15 116 108 188 21 92 253 106 40 14 109 208 18 54 129 47 100 51 238 249 24 41 27 133 116 81 41 6 50 148 49 190 221 89 204 111 126 155 217 19 120 62 122 204 177 163 96 30 242 122 73 92 145 215 198 96 77 136 66 127 121 
167 64 189 93 107 228 60 217 67 181 251 75 38 161 189 179 36 66 70 21 66 95 205 31 132 182 175 12 75 248 97 200 225 22 168 85 83 187 12 109 127 25 138 105 109 233 137 97 227 173 15 149 51 57 53 11 88 113 216 122 65 84 146 103 
109 58 232 142 184 89 197 131 117 142 40 153 188 91 25 3 5 44 225 57 246 222 122 158 122 129 69 95 19 93 251 158 113 52 230 208 67 199 81 99 77 155 61 164 187 253 85 225 181 68 36 202 51 86 134 29 19 110 92 131 105 28 132 181 
22 141 9 226 156 12 150 85 48 201 49 83 17 217 37 66 25 127 64 17 145 170 63 211 74 190 135 173 233 151 22 243 131 204 184 142 106 48 126 161 70 159 108 108 103 247 114 112 89 100 158 211 185 225 143 7 72 251 45 167 62 216 151 161 
225 121 93 154 85 60 240 142 182 165 86 183 100 93 34 177 158 123 164 219 83 3 93 0 52 172 181 55 14 231 241 7 87 28 95 207 7 55 211 101 169 99 87 254 177 21 31 78 16 77 187 240 6 25 144 7 55 90 137 38 2 202 10 109 
14 62 38 245 37 41 17 111 70 98 216 7 245 39 79 143 214 97 75 217 122 41 18 100 121 140 16 59 193 139 204 27 45 102 26 212 90 27 145 241 182 41 63 155 217 153 156 187 25 63 189 95 88 62 202 95 33 202 178 64 244 50 29 88 
221 29 163 51 75 19 59 54 32 64 246 130 5 117 237 28 0 112 119 74 72 93 160 64 88 157 215 251 66 197 231 110 70 234 41 220 163 28 247 133 173 48 99 132 32 195 41 248 180 123 227 98 241 144 124 78 69 139 231 54 84 78 17 163 
143 85 20 149 8 59 173 37 132 128 240 105 210 137 58 152 92 232 104 110 252 222 70 210 17 30 74 183 209 212 131 64 225 230 204 39 35 122 69 95 207 184 4 248 197 209 7 68 33 64 109 56 16 80 230 20 227 222 105 71 98 96 37 140 
99 38 185 90 155 224 167 123 179 97 6 250 158 162 120 67 43 10 92 134 214 236 69 92 228 82 170 173 175 249 223 209 62 156 67 245 24 117 188 193 90 2 96 56 8 5 117 223 161 206 156 33 246 188 73 242 59 2 118 179 95 167 153 85 
153 209 211 194 68 66 106 120 236 35 121 119 169 0 230 94 171 21 149 209 23 200 219 29 18 118 54 31 26 114 59 98 157 75 207 135 196 78 154 234 144 76 185 130 41 158 179 9 115 101 175 93 225 22 228 39 142 55 80 186 138 99 173 62 
